<svg width="1728" height="64" viewBox="0 0 1728 64" fill="none" xmlns="http://www.w3.org/2000/svg">
<g clip-path="url(#clip0_8_87)">
<g clip-path="url(#clip1_8_87)">
<path d="M1747.6 20.6815C1735.2 19.7333 1725.4 21.3333 1715.8 22.4593C1706.2 25.6 1696.6 28.1482 1684.6 26.4889C1673.8 32 1662.8 26.7259 1652.2 28.0296C1641.4 28.2074 1630.8 25.6593 1620.4 24.9482C1609.2 22.5185 1601.2 27.437 1593.6 23.0519C1585.8 21.5111 1578 21.2741 1567 15.5852C1556.2 21.6296 1545.8 4.32594 1534.2 13.5111C1525.4 15.4667 1516.6 14.4 1507.6 15.4667C1498.8 13.9259 1490 16 1481.2 13.5111C1471.8 13.4519 1462.4 16.0593 1453 13.7482C1444.6 20.2667 1436.8 17.5408 1429.6 16.2963C1422.4 20.0889 1415.8 17.7185 1409.8 18.7259C1410 17.6593 1407.6 15.763 1403 20.8593C1392.2 23.7037 1378.2 28.2667 1364 26.3111C1349.8 26.963 1335.4 24.2963 1323.6 20.9185C1313.2 27.2 1305.2 21.6296 1298 20.7408C1290.8 19.9111 1284.2 16.7111 1276.2 13.4519C1269 10.2519 1257.6 13.1556 1248.8 6.16297C1240.6 -0.296287 1232.4 3.14075 1224 4.85927C1215.4 4.20742 1206.6 8.05927 1197.2 8.17779C1188.6 5.33335 1180 3.7926 1171.4 3.67409C1162.6 0.8889 1154 3.91113 1145.2 8.05928C1136.4 10.0148 1127.8 13.3926 1119 11.2593C1110.4 12.5037 1101.8 10.9037 1093.4 7.94075C1083.8 9.48149 1076.4 8.77039 1069.2 11.9111C1062.2 7.76298 1055.6 11.9111 1048 15.9408C1040 21.5704 1031 21.7482 1023 20.0296C1014 24.0593 1008.4 18.6074 999.4 22.6963C988.6 20.2667 977.8 25.0074 967.6 25.8371C957.6 27.6148 948.2 27.1408 941 33.7185C936 35.9111 932 43.0815 927.4 40.9482C922.8 44.0889 917.6 41.0667 910.2 42.2519C903.6 46.2815 897.4 44.5037 891.4 48.6519C885.4 52.0297 879.4 49.0074 873.2 51.3185C861 53.1556 848.4 47.4667 833 46.3408C823 48.1185 813.4 44.563 804 45.0371C794.6 50.6074 785.4 53.3926 775.6 48.1185C759.4 54.8741 747.8 49.363 736.2 48.5333C724.8 46.7556 713.2 42.9037 697.6 46.7556C685 45.2741 672.4 49.4222 659.8 42.7259C650.2 38.8741 639 37.2741 626.8 41.2445C614.6 41.363 601.4 38.2815 588.2 40.1185C575 39.1111 561.6 38.8148 548.8 36.3852C536.2 32.5333 524.2 37.8667 513.6 40.8889C502.2 35.9704 492.4 34.6667 482.8 41.4222C473.2 39.2296 463.8 42.5482 453 45.0963C443.2 47.4667 437.2 42.3704 431.4 47.3482C425.8 49.8963 420.4 44.9185 411.6 54.2222C402.8 58.9037 389 57.7778 376 56.5926C362.8 54.9334 350.4 62.5778 344.2 57.3037C334.8 58.0148 326.6 58.6667 318.8 57.0074C311.2 58.4889 304.2 56.5334 297 57.2445C289.8 55.4074 282.4 55.9407 274 56.7111C265.8 57.5407 256.6 58.1333 246 57.3037C240 61.2148 232 61.2148 223.2 62.3407C214.4 63.8222 204.8 65.6593 195.6 61.2148C177.2 64 160.4 57.5407 154.8 58.1926C142.8 60.0296 133.8 56.1185 126.4 56.7704C119 57.7185 113.2 58.1926 107.4 56.8296C96.2 57.5408 85.4 58.4889 63.8 59.1408C58.6 62.0445 51.4 62.2815 43.8 62.9333C36 64.5926 28 60.3852 20.8 62.3407C6.6 61.037 -3.2 62.5778 3.4 59.3778C2.2 59.3778 1 59.3778 0 59.3778V-97.2444H1751.4V20.2667C1750.2 20.3852 1748.93 20.5235 1747.6 20.6815Z" fill="#FFFBF4"/>
<path d="M1749.6 17.1852C1737.2 16.3556 1727.4 17.7185 1717.8 18.7852C1708.2 21.5111 1698.6 23.8222 1686.6 22.3408C1675.8 27.2 1664.8 22.5778 1654.2 23.7037C1643.4 23.8815 1632.8 21.5704 1622.4 20.9778C1611.2 18.7852 1603.2 23.1704 1595.6 19.2593C1587.8 17.8963 1580 17.7185 1569 12.6815C1558.2 18.0148 1547.8 2.60742 1536.2 10.7852C1527.4 12.563 1518.6 11.5556 1509.6 12.563C1500.8 11.2 1492 13.0371 1483.2 10.8445C1473.8 10.7852 1464.4 13.0963 1455 11.0222C1446.6 16.8296 1438.8 14.3408 1431.6 13.2741C1424.4 16.5926 1417.8 14.5778 1411.8 15.4074C1412 14.5185 1409.6 12.8 1405 17.3037C1394.2 19.8519 1380.2 23.8815 1366 22.163C1351.8 22.7556 1337.4 20.3852 1325.6 17.363C1315.2 22.9334 1307.2 18.0148 1300 17.2445C1292.8 16.4741 1286.2 13.6296 1278.2 10.7852C1271 7.94075 1259.6 10.4889 1250.8 4.26668C1242.6 -1.42221 1234.4 1.60002 1226 3.14076C1217.4 2.54817 1208.6 5.92594 1199.2 6.04446C1190.6 3.49631 1182 2.19261 1173.4 2.07409C1164.6 -0.414799 1156 2.25187 1147.2 5.9852C1138.4 7.70372 1129.8 10.6667 1121 8.82964C1112.4 9.95557 1103.8 8.47409 1095.4 5.86668C1085.8 7.22964 1078.4 6.57779 1071.2 9.42223C1064.2 5.6889 1057.6 9.42223 1050 12.9778C1042 17.9556 1033 18.1333 1025 16.5926C1016 20.2074 1010.4 15.3482 1001.4 18.963C990.6 16.8296 979.8 20.9778 969.6 21.7482C959.6 23.2889 950.2 22.8741 943 28.7408C938 30.6371 934 37.0371 929.4 35.2C924.8 37.9852 919.6 35.2593 912.2 36.3259C905.6 39.8815 899.4 38.3408 893.4 42.0148C887.4 44.9778 881.4 42.3111 875.2 44.3852C863 45.9852 850.4 40.9482 835 39.9408C825 41.5408 815.4 38.3408 806 38.7556C796.6 43.7334 787.4 46.2222 777.6 41.5408C761.4 47.5259 749.8 42.6074 738.2 41.8963C726.8 40.2963 715.2 36.9185 699.6 40.3556C687 38.9926 674.4 42.6667 661.8 36.7408C652.2 33.363 641 31.8815 628.8 35.4371C616.6 35.5556 603.4 32.7704 590.2 34.4296C577 33.5408 563.6 33.2445 550.8 31.1111C538.2 27.6741 526.2 32.4148 515.6 35.1408C504.2 30.7556 494.4 29.5704 484.8 35.6148C475.2 33.6593 465.8 36.563 455 38.8741C445.2 40.9482 439.2 36.4445 433.4 40.8297C427.8 43.0815 422.4 38.6371 413.6 46.9333C404.8 51.1408 391 50.0741 378 49.0667C364.8 47.5852 352.4 54.4 346.2 49.6593C336.8 50.3111 328.6 50.9037 320.8 49.4222C313.2 50.7259 306.2 49.0074 299 49.6C291.8 48 284.4 48.4741 276 49.1852C267.8 49.8963 258.6 50.4297 248 49.7185C242 53.1556 234 53.1556 225.2 54.163C216.4 55.4667 206.8 57.1259 197.6 53.1556C179.2 55.6445 162.4 49.8963 156.8 50.4889C144.8 52.1482 135.8 48.6519 128.4 49.1852C121 50.0148 115.2 50.4889 109.4 49.2445C98.2 49.8963 87.4 50.7259 65.8 51.3185C60.6 53.8667 53.4 54.1037 45.8 54.6371C38 56.1185 30 52.4445 22.8 54.163C8.6 53.0371 -1.2 54.3408 5.4 51.4963C4.2 51.4963 3 51.5556 2 51.5556V-87.5259H1753.4V16.7704C1752.2 16.9284 1750.93 17.0667 1749.6 17.1852Z" fill="#F9F4EE"/>
</g>
</g>
<defs>
<clipPath id="clip0_8_87">
<rect width="1728" height="64" fill="white"/>
</clipPath>
<clipPath id="clip1_8_87">
<rect width="1728" height="64" fill="white"/>
</clipPath>
</defs>
</svg>
